# xmcd
# 
# Track frame offsets:
#     150
#     11882
#     33207
#     50405
#     61550
#     77308
#     89107
#     102029
#     121623
#     137026
#     151736
#     168702
#     179837
#     193548
# 
# Disc length: 2824
# 
# Revision: 4
# Processed by: cddbd v1.5.2PL0 Copyright (c) Steve Scherf et al.
# Submitted via: fre:ac v1.0.31
# 
DISCID=ab0b060e
DTITLE=Christmas - Now That's What I Call A Country Christmas Disc 1
DYEAR=2009
DGENRE=Christmas
TTITLE0=Darius Rucker - Winter Wonderland
TTITLE1=Brad Paisley - Away In A Manger
TTITLE2=Julianne Hough - Have Yourself A Merry Little Christmas
TTITLE3=George Strait - Joy To The World
TTITLE4=Lady Antebellum - Baby, It's Cold Outside
TTITLE5=Brooks and Dunn - I'll Be Home For Christmas
TTITLE6=Luke Bryan - Run Run Rudolph
TTITLE7=Josh Turner - The First Noel
TTITLE8=Kellie Pickler - Santa Baby
TTITLE9=Trace Adkins - It's Christmas
TTITLE10=Little Big Town - Go Tell It On The Mountain
TTITLE11=Lee Ann Womack - The Man With The Bag
TTITLE12=Taylor Swift - Christmases When You Were Mine
TTITLE13=Kenny Chesney - Silver Bells
EXTD=YEAR: 2009
EXTT0=
EXTT1=
EXTT2=
EXTT3=
EXTT4=
EXTT5=
EXTT6=
EXTT7=
EXTT8=
EXTT9=
EXTT10=
EXTT11=
EXTT12=
EXTT13=
PLAYORDER=
